<svg width="36" height="40" viewBox="0 0 36 40" fill="none" xmlns="http://www.w3.org/2000/svg">
<path d="M32.01 9.07637H23.3951V5.60498C23.3951 3.95207 22.0504 2.60742 20.3975 2.60742H11.6019C9.94895 2.60742 8.60422 3.95207 8.60422 5.60498V9.07637H-0.0106807C-2.20527 9.07637 -3.99076 10.8619 -3.99076 13.0565C-3.99076 15.0499 -4.19491 16.8401 -2.68427 18.8534C-1.82957 19.9925 -0.655037 20.8051 0.712306 21.2031L13.9901 25.069C15.3046 25.4517 16.6943 25.4519 18.0091 25.069L31.2869 21.2031C32.6542 20.805 33.8288 19.9925 34.6835 18.8534C36.2009 16.8311 35.99 15.0224 35.99 13.0565C35.99 10.8619 34.2046 9.07637 32.01 9.07637ZM11.1432 5.60498C11.1432 5.35211 11.349 5.14644 11.6019 5.14644H20.3975C20.6504 5.14644 20.8561 5.35218 20.8561 5.60498V9.07637H11.1432V5.60498Z" fill="#A7A9AC"/>
<path d="M31.9972 23.6408C17.6755 27.8107 17.8609 27.8951 16.0001 27.8951C14.1527 27.8951 14.591 27.8882 0.00309277 23.6409C-1.535 23.193 -2.89719 22.3675 -3.99023 21.2295V33.4133C-3.99023 35.6079 -2.20483 37.3933 -0.0101578 37.3933H32.0105C34.2051 37.3933 35.9906 35.6079 35.9906 33.4133V21.2295C34.8974 22.3675 33.5353 23.193 31.9972 23.6408Z" fill="#A7A9AC"/>
</svg>
