<svg width="40" height="40" viewBox="0 0 40 40" fill="none" xmlns="http://www.w3.org/2000/svg">
<path d="M21.875 25.7812H18.125C17.4758 25.7834 16.8452 25.9985 16.3302 26.3937C15.8151 26.7889 15.444 27.3422 15.2738 27.9688H13.4762C13.306 27.3422 12.9349 26.7889 12.4198 26.3937C11.9048 25.9985 11.2742 25.7834 10.625 25.7812H6.875C5.75652 25.7826 4.68424 26.2275 3.89335 27.0184C3.10247 27.8092 2.65757 28.8815 2.65625 30V31.25C2.65757 32.3685 3.10247 33.4408 3.89335 34.2316C4.68424 35.0225 5.75652 35.4674 6.875 35.4688C8.62852 35.4662 10.3116 34.7786 11.5654 33.5526C12.8191 32.3266 13.5441 30.6593 13.5859 28.9062H15.1641C15.2059 30.6593 15.9309 32.3266 17.1846 33.5526C18.4384 34.7786 20.1215 35.4662 21.875 35.4688C22.9935 35.4674 24.0658 35.0225 24.8566 34.2316C25.6475 33.4408 26.0924 32.3685 26.0938 31.25V30C26.0924 28.8815 25.6475 27.8092 24.8566 27.0184C24.0658 26.2275 22.9935 25.7826 21.875 25.7812Z" fill="#A7A9AC"/>
<path d="M31.0938 13.5938C31.0938 13.4694 31.0444 13.3502 30.9565 13.2623C30.8685 13.1744 30.7493 13.125 30.625 13.125H9.375C9.25068 13.125 9.13145 13.1744 9.04354 13.2623C8.95564 13.3502 8.90625 13.4694 8.90625 13.5938V15.1562H31.0938V13.5938Z" fill="#A7A9AC"/>
<path d="M20.0001 2.65625C17.4457 2.66023 14.9928 3.65653 13.1591 5.43487C11.3254 7.2132 10.2544 9.63443 10.1721 12.1875H29.828C29.7457 9.63443 28.6747 7.2132 26.841 5.43487C25.0074 3.65653 22.5544 2.66023 20.0001 2.65625Z" fill="#A7A9AC"/>
<path d="M37.76 25.86L34.0796 23.4062C34.1714 23.8711 34.218 24.3437 34.2188 24.8175V26.9675C34.4877 27.0763 34.7104 27.2752 34.8487 27.5302C34.987 27.7852 35.0324 28.0803 34.977 28.3651C34.9216 28.6498 34.7689 28.9064 34.545 29.0909C34.3211 29.2754 34.0401 29.3763 33.75 29.3763C33.4599 29.3763 33.1789 29.2754 32.955 29.0909C32.7311 28.9064 32.5784 28.6498 32.523 28.3651C32.4676 28.0803 32.513 27.7852 32.6513 27.5302C32.7896 27.2752 33.0123 27.0763 33.2813 26.9675V24.8175C33.2768 24.4043 33.2321 23.9926 33.1478 23.5881L29.74 25.86C29.6757 25.9027 29.623 25.9607 29.5866 26.0288C29.5502 26.0968 29.5312 26.1728 29.5313 26.25V35C29.5317 35.4557 29.7129 35.8926 30.0352 36.2148C30.3574 36.5371 30.7943 36.7183 31.25 36.7188H36.25C36.7057 36.7183 37.1426 36.5371 37.4648 36.2148C37.7871 35.8926 37.9683 35.4557 37.9688 35V26.25C37.9689 26.1728 37.9498 26.0968 37.9134 26.0288C37.877 25.9607 37.8243 25.9027 37.76 25.86Z" fill="#A7A9AC"/>
<path d="M29.7905 19.1693C29.6793 19.1136 29.5947 19.0161 29.5555 18.8981C29.5162 18.78 29.5254 18.6513 29.5811 18.5401C29.6368 18.4289 29.7344 18.3443 29.8524 18.3051C29.9704 18.2658 30.0992 18.275 30.2104 18.3307C31.4463 18.946 32.4803 19.9021 33.1905 21.0861C35.6601 19.9105 37.3207 18.3941 37.8136 16.6926C37.8332 16.6224 37.8362 16.5486 37.8225 16.4771C37.8088 16.4055 37.7787 16.338 37.7345 16.28C37.6904 16.222 37.6334 16.175 37.5681 16.1427C37.5028 16.1104 37.4309 16.0936 37.358 16.0938H2.64286C2.56998 16.0936 2.49806 16.1104 2.43273 16.1427C2.3674 16.175 2.31045 16.222 2.26632 16.28C2.22219 16.338 2.19208 16.4055 2.17836 16.4771C2.16464 16.5486 2.16768 16.6224 2.18723 16.6926C3.33017 20.6384 10.7429 23.5938 20.0004 23.5938C24.2064 23.6755 28.3895 22.9545 32.3254 21.4694C31.7087 20.4836 30.8314 19.6876 29.7905 19.1693Z" fill="#A7A9AC"/>
<path d="M34.01 23.36L34.0796 23.4064C33.9199 22.5872 33.6189 21.8021 33.1901 21.0861C32.9121 21.2183 32.6238 21.3461 32.3251 21.4694C32.7263 22.1195 33.0051 22.8376 33.1478 23.5881L33.49 23.36C33.567 23.3087 33.6575 23.2813 33.75 23.2813C33.8425 23.2813 33.933 23.3087 34.01 23.36Z" fill="#A7A9AC"/>
</svg>
