<svg width="40" height="40" viewBox="0 0 40 40" fill="none" xmlns="http://www.w3.org/2000/svg">
<g clip-path="url(#clip0_4423_30892)">
<path d="M38.2614 33.9954L34.1223 29.8377C34.1154 29.8308 34.1086 29.8237 34.102 29.8167C33.278 28.946 32.8243 27.8089 32.8243 26.6147V16.5337C32.8243 15.0052 32.3914 13.5151 31.5726 12.2244L24.3664 0.865981C24.3624 0.859733 24.3585 0.853407 24.3546 0.847081C24.065 0.370589 23.5842 0.056937 23.0683 0.00796792C22.6617 -0.0303014 22.2676 0.0697455 21.9299 0.298112C21.5176 0.576931 21.2681 1.00117 21.2035 1.45338C21.2002 1.73891 21.1464 2.03694 21.4903 2.65652L24.8775 9.09279C25.9665 10.9027 26.4961 13.0133 26.4961 15.5436V21.8793C26.4961 22.5027 26.0171 23.039 25.3946 23.0683C24.7298 23.0996 24.181 22.5699 24.181 21.9121V16.4301C24.181 15.6232 23.5117 14.9668 22.6888 14.9668C21.866 14.9668 21.1967 15.6232 21.1967 16.4301V16.4438C21.1967 16.4448 21.1967 16.4457 21.1967 16.4467V25.3873C21.1984 27.5854 22.1243 29.7143 23.7378 31.2287C23.7404 31.2312 23.743 31.2336 23.7455 31.236L32.6016 39.7035C32.9988 40.0833 33.6269 40.0754 34.0146 39.686L38.2614 35.4196C38.6535 35.0259 38.6535 34.3892 38.2614 33.9954Z" fill="#A7A9AC"/>
<path d="M18.8033 16.4452C18.8026 15.639 18.1336 14.9835 17.3112 14.9835C16.4884 14.9835 15.819 15.6399 15.819 16.4467V21.8959C15.819 22.5192 15.3401 23.0556 14.7174 23.0848C14.0527 23.1162 13.5039 22.5865 13.5039 21.9286V15.5602C13.5039 13.03 14.0335 10.9193 15.1225 9.10944C15.1225 9.10944 17.6459 4.27322 18.5097 2.67317C18.6981 2.32422 18.8234 2.14201 18.7953 1.46222C18.7288 1.01291 18.48 0.591866 18.0701 0.314765C17.7324 0.0863212 17.3389 -0.0138038 16.9316 0.0246217C16.4157 0.0735127 15.9349 0.387165 15.6453 0.863578C15.6415 0.869983 15.6376 0.876231 15.6336 0.882557L8.42745 12.241C7.60864 13.5317 7.17581 15.0218 7.17581 16.5503V26.6313C7.17581 27.8254 6.72204 28.9625 5.89808 29.8332C5.89136 29.8404 5.88457 29.8473 5.87762 29.8543L1.7386 34.012C1.34653 34.4058 1.34653 35.0424 1.7386 35.4363L5.9854 39.7026C6.37309 40.0921 7.00117 40.0999 7.39839 39.7201L16.2545 31.2527C16.2571 31.2502 16.2597 31.2478 16.2623 31.2453C17.8771 29.7295 18.8034 27.5984 18.8034 25.3982V25.3872C18.8034 25.3853 18.8033 25.3834 18.8033 25.3815V16.4452Z" fill="#A7A9AC"/>
</g>
<defs>
<clipPath id="clip0_4423_30892">
<rect width="40" height="40" fill="white"/>
</clipPath>
</defs>
</svg>
