<svg width="40" height="36" viewBox="0 0 40 36" fill="none" xmlns="http://www.w3.org/2000/svg">
<path d="M39.6046 15.6586C38.9467 19.0307 37.5034 22.2774 35.4491 25.0749C35.2147 25.394 34.7168 25.3229 34.58 24.9514C34.3188 24.2423 34.4822 24.5632 28.9106 16.6152C28.7088 16.3273 28.86 15.9299 29.2005 15.8425C30.1908 15.588 31.0613 15.1184 31.7879 14.4368C32.0571 14.1851 32.0704 13.7634 31.8187 13.4942C31.5671 13.2259 31.1453 13.2125 30.8761 13.4642C30.0821 14.2087 29.0774 14.6269 27.8757 14.7175C27.7008 14.7306 27.532 14.6488 27.4314 14.5052L25.398 11.604C24.9386 10.9459 24.0237 11.4761 24.0446 12.2124C24.0511 12.4415 23.9219 12.6631 23.7087 12.785C17.3054 16.4468 17.7605 16.1917 17.6322 16.2545C16.6762 16.7223 15.5604 16.7957 14.5435 16.4621C11.6986 15.5198 10.8428 12.0432 12.75 9.82551C12.9764 9.56289 12.4724 10.0229 19.014 4.31574C19.7321 3.68926 20.2841 3.17953 21.2851 2.54472C29.4652 -2.70652 42.43 1.15523 39.6046 15.6586Z" fill="#A7A9AC"/>
<path d="M31.9296 28.9916C31.6895 29.1224 31.3927 29.0887 31.1841 28.9121L20.4301 19.8186C20.1466 19.5795 19.7437 19.6303 19.5158 19.8686C19.2649 20.1308 19.2698 20.5863 19.5683 20.837C21.6234 22.5628 15.7031 17.5683 29.1352 28.9262C29.3374 29.0972 29.4215 29.3725 29.3447 29.6259C29.0988 30.437 28.5221 31.1125 27.7936 31.4932C27.5618 31.6143 27.2798 31.5842 27.075 31.4214C24.0945 29.0522 16.8752 23.2964 16.7281 23.2157C16.4785 23.0783 16.1524 23.1163 15.9397 23.329C15.6522 23.6168 15.687 24.0798 15.9947 24.3241C25.7786 32.0976 25.3468 31.7463 25.3432 31.7608C25.2062 32.6412 24.6409 33.4535 23.8814 33.9095C23.6377 34.0559 23.3279 34.033 23.1092 33.8514L13.9369 26.2333C13.8078 26.126 13.6428 26.0706 13.4701 26.0817C13.4447 26.0817 13.3782 26.0912 13.3476 26.1008C12.8309 26.2098 12.6606 26.9059 13.0843 27.2593L20.5852 33.4883C20.8208 33.6839 20.8942 34.0156 20.7603 34.2911C20.1576 35.5315 18.5958 36.2165 17.1314 35.1927C12.9167 32.2452 3.05727 27.1564 0.492071 15.6764C-2.60651 1.80728 9.60814 -2.54769 18.1151 2.14148C18.5214 2.36543 18.5827 2.92457 18.2329 3.22927C16.4957 4.74227 12.0969 8.57793 12.0201 8.65477C9.98818 10.6867 9.8465 13.9603 11.6967 16.1081C13.3836 18.0666 16.2559 18.5895 18.5374 17.2832C24.8873 13.6476 24.4191 13.9193 24.5313 13.8405C24.8304 13.6302 25.2444 13.7083 25.4543 14.0077C33.4823 25.4633 33.1604 24.9231 33.3507 25.4566C33.854 26.8466 33.1314 28.337 31.9296 28.9916Z" fill="#A7A9AC"/>
</svg>
