<svg width="40" height="40" viewBox="0 0 40 40" fill="none" xmlns="http://www.w3.org/2000/svg">
<g clip-path="url(#clip0_4423_30874)">
<path d="M7.06047 11.6866V6.15256L10.0559 6.94082L10.6549 4.66484L4.70698 3.09961V8.35872C2.41515 7.54582 0 9.25563 0 11.6866C0 13.6331 1.58366 15.2168 3.53024 15.2168C5.47681 15.2168 7.06047 13.6331 7.06047 11.6866Z" fill="#A7A9AC"/>
<path d="M34.1259 26.627V33.0698C31.8323 32.2563 29.4189 33.9685 29.4189 36.3976C29.4189 38.3443 31.0025 39.9279 32.9492 39.9279C34.8958 39.9279 36.4794 38.3443 36.4794 36.3976V29.6939L39.3914 30.4738L40.0003 28.2005L34.1259 26.627Z" fill="#A7A9AC"/>
<path d="M31.2917 28.6439L29.3265 26.6787C27.6572 25.0094 24.941 25.0094 23.2717 26.6788L13.3478 36.6027C11.9713 37.9792 9.73174 37.9792 8.35527 36.6027L6.53304 34.7805C5.70437 33.9518 5.6595 32.6322 6.39748 31.7498C7.7079 32.3694 9.32357 32.1387 10.4059 31.0564L5.41333 26.0639C4.32719 27.15 4.0989 28.7732 4.72681 30.0861C3.07647 31.8894 3.12346 34.6992 4.86881 36.4446L6.69104 38.2668C8.98514 40.5609 12.7178 40.5609 15.0119 38.2668L24.9358 28.3428C25.6875 27.5911 26.9107 27.5911 27.6623 28.3428L29.6274 30.3079L31.2917 28.6439Z" fill="#A7A9AC"/>
<path d="M6.00208 23.3245C7.57075 24.8931 11.5442 28.8666 13.1443 30.4667C13.9665 30.4369 14.7822 30.1345 15.4415 29.5527L26.9969 19.3568C25.9292 18.289 18.1613 10.5212 17.1127 9.47253L6.91562 21.0292C6.33431 21.688 6.03204 22.5029 6.00208 23.3245ZM18.7265 16.0789L20.3907 17.743L17.8944 20.2393L16.2303 18.5751L18.7265 16.0789Z" fill="#A7A9AC"/>
<path d="M33.7039 2.76548C30.3152 -0.623308 24.9646 -0.883212 21.2745 1.9853L34.4841 15.1948C37.3526 11.5049 37.0927 6.1542 33.7039 2.76548Z" fill="#A7A9AC"/>
<path d="M29.5452 18.5762C30.7135 18.2397 31.8247 17.6607 32.8251 16.8635L19.6062 3.64453C18.8091 4.64492 18.23 5.75616 17.8936 6.92443C18.3184 7.34932 29.161 18.1919 29.5452 18.5762Z" fill="#A7A9AC"/>
</g>
<defs>
<clipPath id="clip0_4423_30874">
<rect width="40" height="40" fill="white"/>
</clipPath>
</defs>
</svg>
