<svg width="40" height="40" viewBox="0 0 40 40" fill="none" xmlns="http://www.w3.org/2000/svg">
<g clip-path="url(#clip0_4423_30886)">
<path d="M14.0634 0.705008C14.0598 0.704227 11.4894 0.185477 10.7554 0.0373516C10.5155 -0.0110859 10.2631 0.00992969 10.0432 0.11743C9.65672 0.306336 9.37555 0.70032 9.375 1.15712C9.375 1.15751 9.375 1.1579 9.375 1.1579V17.354C8.39266 16.7591 7.18344 16.3927 5.85938 16.3927C2.62867 16.3927 0 18.4949 0 21.0802C0 23.6654 2.62867 25.7677 5.85938 25.7677C9.09008 25.7677 11.7188 23.6654 11.7188 21.0802C11.7188 20.8336 11.7188 8.26673 11.7188 8.26673C18.3897 8.66571 20.9195 12.2184 21.0903 12.8256C21.1235 13.4493 21.6396 13.9357 22.2599 13.9357C22.2713 13.9357 22.2828 13.9357 22.2942 13.9357C22.9305 13.9174 23.4352 13.3944 23.4329 12.7581C23.3927 3.70329 17.7393 1.49016 14.0634 0.705008Z" fill="#A7A9AC"/>
<path d="M39.5342 12.0977C39.2412 11.8768 38.859 11.807 38.5066 11.9066L22.1003 16.5941C21.5968 16.7383 21.25 17.1983 21.25 17.7213C21.25 25.587 21.25 19.0163 21.25 31.5733C20.2677 30.9785 19.0584 30.612 17.7344 30.612C14.5037 30.612 11.875 32.7142 11.875 35.2995C11.875 37.8847 14.5037 39.987 17.7344 39.987C20.9651 39.987 23.5938 37.8847 23.5938 35.2995C23.5938 35.0528 23.5938 23.2932 23.5938 23.2932L37.6562 19.2753V26.8858C36.6739 26.291 35.4647 25.9245 34.1406 25.9245C30.9099 25.9245 28.2812 28.0267 28.2812 30.612C28.2812 33.1972 30.9099 35.2995 34.1406 35.2995C37.3713 35.2995 40 33.1972 40 30.612C40 20.787 40 17.0717 40 13.0338C40 12.6664 39.8272 12.3197 39.5342 12.0977Z" fill="#A7A9AC"/>
</g>
<defs>
<clipPath id="clip0_4423_30886">
<rect width="40" height="40" fill="white"/>
</clipPath>
</defs>
</svg>
