<svg width="40" height="40" viewBox="0 0 40 40" fill="none" xmlns="http://www.w3.org/2000/svg">
<path d="M19.9992 29.8461C21.455 29.8461 22.6352 28.6659 22.6352 27.2102C22.6352 25.7544 21.455 24.5742 19.9992 24.5742C18.5434 24.5742 17.3633 25.7544 17.3633 27.2102C17.3633 28.6659 18.5434 29.8461 19.9992 29.8461Z" fill="#A7A9AC"/>
<path d="M12.2871 34.923H27.713V19.4971H12.2871V34.923ZM20.0001 22.2304C22.7459 22.2304 24.9797 24.4643 24.9797 27.21C24.9797 29.9558 22.7458 32.1897 20.0001 32.1897C17.2544 32.1897 15.0205 29.9558 15.0205 27.21C15.0205 24.4643 17.2543 22.2304 20.0001 22.2304Z" fill="#A7A9AC"/>
<path d="M28.885 37.2666H11.1153C9.37004 37.2666 7.88848 38.4173 7.38965 39.9999H32.6104C32.1117 38.4173 30.6301 37.2666 28.885 37.2666Z" fill="#A7A9AC"/>
<path d="M5.94043 11.7969H34.0589V17.1533H5.94043V11.7969Z" fill="#A7A9AC"/>
<path d="M29.4531 0C24.2323 0 20 4.23234 20 9.45312C25.2209 9.45312 29.4531 5.22078 29.4531 0Z" fill="#A7A9AC"/>
<path d="M10.5469 0C10.5469 5.22078 14.7791 9.45312 20 9.45312C20 4.23234 15.7677 0 10.5469 0Z" fill="#A7A9AC"/>
</svg>
