<svg width="40" height="38" viewBox="0 0 40 38" fill="none" xmlns="http://www.w3.org/2000/svg">
<path d="M30.0843 17.8878C29.6379 17.2661 29.4492 16.4861 29.5839 15.7005L29.8525 14.1345L28.7149 13.0256C28.6976 13.0088 28.682 12.9908 28.6652 12.9736C19.9597 20.2358 18.9695 31.8769 19.0644 37.5917C19.0679 37.7999 19.2278 37.9721 19.4353 37.9914C19.6426 38.0106 19.8312 37.8708 19.8732 37.6668C22.2746 25.9715 26.816 20.4439 30.0843 17.8878Z" fill="#A7A9AC"/>
<path d="M13.0125 10.0785L10.3854 10.6666L9.38051 13.1641C9.36227 13.2095 9.34168 13.2534 9.32135 13.2974C13.4215 19.0979 15.5569 30.9405 16.4105 36.9059C16.4306 37.0459 16.5553 37.1464 16.6963 37.1369C16.8372 37.1274 16.9471 37.0108 16.9483 36.8695C17.0521 24.0026 15.0838 15.4176 13.0972 10.0566C13.0689 10.0637 13.0411 10.0721 13.0125 10.0785Z" fill="#A7A9AC"/>
<path d="M30.9786 30.9122L30.6063 30.4001C30.305 29.9857 30.1255 29.5139 30.0677 29.0293C27.2021 29.7935 22.8914 31.7491 21.5141 36.6954C21.4397 36.9626 21.5692 37.2444 21.8203 37.3619C22.0716 37.4795 22.371 37.3984 22.5284 37.1701C24.0313 34.9905 26.7329 32.1123 30.7619 31.5279C30.7641 31.5216 30.7657 31.5152 30.7679 31.5088L30.9786 30.9122Z" fill="#A7A9AC"/>
<path d="M10.4865 25.917C10.2244 26.2835 9.87586 26.5916 9.45654 26.8097L8.89506 27.1017L8.81727 27.7298C8.79382 27.919 8.7516 28.102 8.6944 28.2783C11.1004 30.9961 12.8735 34.7293 13.945 37.4097C14.0168 37.5894 14.2129 37.6857 14.3992 37.6333C14.5854 37.5808 14.7023 37.3965 14.6698 37.2056C13.7211 31.6034 12.0617 28.095 10.4865 25.917Z" fill="#A7A9AC"/>
<path d="M32.6529 13.225L32.1527 16.1413C32.1328 16.2573 32.1804 16.3745 32.2757 16.4437C32.3295 16.4828 32.3934 16.5027 32.4575 16.5027C32.5067 16.5027 32.5561 16.491 32.6013 16.4672L35.2204 15.0903L37.8394 16.4672C37.8846 16.491 37.934 16.5027 37.9832 16.5027C38.0474 16.5027 38.1112 16.4828 38.165 16.4437C38.2603 16.3745 38.308 16.2573 38.288 16.1413L37.7878 13.225L39.9067 11.1595C39.991 11.0773 40.0213 10.9544 39.985 10.8425C39.9486 10.7306 39.8518 10.649 39.7353 10.6321L36.8071 10.2066L35.4976 7.55325C35.4455 7.4477 35.338 7.38086 35.2203 7.38086C35.1026 7.38086 34.9951 7.4477 34.943 7.55325L33.6335 10.2066L30.7053 10.6321C30.5888 10.649 30.492 10.7306 30.4556 10.8425C30.4193 10.9544 30.4496 11.0773 30.5338 11.1595L32.6529 13.225Z" fill="#A7A9AC"/>
<path d="M12.4431 7.53498C12.558 7.50931 12.6483 7.42057 12.676 7.30617C12.7038 7.19176 12.6643 7.07162 12.574 6.99605L9.45846 4.38933L9.8396 0.345103C9.85068 0.227961 9.79413 0.114597 9.69405 0.052833C9.64428 0.0222117 9.58799 0.00683594 9.53183 0.00683594C9.47475 0.00683594 9.41781 0.0226026 9.36764 0.0540057L5.92568 2.21157L2.19705 0.599455C2.15757 0.582386 2.11587 0.574046 2.07443 0.574046C2.00238 0.574046 1.9311 0.599195 1.87416 0.647537C1.78438 0.723765 1.74581 0.844295 1.77448 0.958441L2.76283 4.89855L0.0772752 7.94635C-0.000515874 8.03469 -0.0214947 8.15952 0.0233296 8.26833C0.068154 8.37726 0.170833 8.45127 0.288236 8.45922L4.34093 8.7369L6.40976 12.2328C6.46566 12.3273 6.56716 12.3846 6.67584 12.3846C6.68365 12.3846 6.69147 12.3843 6.69942 12.3837C6.81682 12.3748 6.91885 12.3 6.96289 12.1909L8.47923 8.42235L12.4431 7.53498Z" fill="#A7A9AC"/>
<path d="M39.3843 29.6877C39.3674 29.5712 39.2857 29.4745 39.1737 29.4381L37.2687 28.8198L36.6981 26.9C36.6646 26.7871 36.5699 26.7031 36.4539 26.6833C36.4364 26.6803 36.419 26.6788 36.4016 26.6788C36.3037 26.6788 36.2102 26.7255 36.1515 26.8064L34.9747 28.4272L32.9725 28.3767C32.9699 28.3767 32.9672 28.3766 32.9646 28.3766C32.85 28.3766 32.7444 28.4401 32.691 28.5419C32.6363 28.6462 32.6454 28.7724 32.7146 28.8675L33.8924 30.4876L33.2255 32.3763C33.1863 32.4874 33.2135 32.6109 33.2957 32.6952C33.3549 32.7558 33.435 32.7885 33.5171 32.7885C33.549 32.7885 33.5814 32.7835 33.6128 32.7734L35.5175 32.1538L37.1078 33.3716C37.1628 33.4137 37.2291 33.4353 37.2958 33.4353C37.3424 33.4353 37.3892 33.4248 37.4327 33.4034C37.5383 33.3513 37.6051 33.2438 37.605 33.126L37.6044 31.1231L39.254 29.9871C39.3507 29.9203 39.4012 29.8042 39.3843 29.6877Z" fill="#A7A9AC"/>
<path d="M8.25445 24.498C8.35883 24.4436 8.42346 24.3348 8.42098 24.217C8.41851 24.0994 8.34944 23.9933 8.24273 23.9434L6.42825 23.0951L6.09845 21.1196C6.07904 21.0035 5.99552 20.9085 5.8828 20.8745C5.85335 20.8656 5.82325 20.8613 5.79354 20.8613C5.70924 20.8613 5.62689 20.8959 5.5676 20.9594L4.2002 22.423L2.21932 22.1262C2.20395 22.1238 2.1887 22.1228 2.17346 22.1228C2.07312 22.1228 1.97787 22.1717 1.91963 22.2556C1.85239 22.3523 1.84601 22.4787 1.90295 22.5817L2.87227 24.3346L1.97787 26.1268C1.92536 26.232 1.93709 26.358 2.00823 26.4519C2.06739 26.5298 2.15886 26.5741 2.25451 26.5741C2.27405 26.5741 2.29373 26.5723 2.31327 26.5685L4.27981 26.1883L5.70794 27.5927C5.7667 27.6505 5.84502 27.6814 5.92489 27.6814C5.95903 27.6814 5.9933 27.6758 6.02653 27.6642C6.13768 27.6255 6.21716 27.527 6.23163 27.4102L6.47777 25.4225L8.25445 24.498Z" fill="#A7A9AC"/>
<path d="M21.3993 7.73383L21.1589 7.14838L20.5402 7.01456C20.0783 6.91462 19.661 6.70926 19.3118 6.4248C18.3149 9.07648 17.6168 13.178 18.351 19.3472C18.3904 19.6793 18.8748 19.6754 18.9063 19.3426C19.1777 16.4808 19.8772 11.8535 21.663 8.23159C21.561 8.0764 21.4719 7.91052 21.3993 7.73383Z" fill="#A7A9AC"/>
<path d="M22.2805 0.640157L22.4828 2.63289L20.9559 3.92914C20.8661 4.00537 20.8274 4.12577 20.8561 4.24005C20.8846 4.35419 20.9755 4.44228 21.0906 4.46717L23.0483 4.89065L23.8092 6.74343C23.8539 6.85237 23.9566 6.92638 24.074 6.93446C24.0812 6.93498 24.0882 6.93524 24.0953 6.93524C24.2047 6.93524 24.3069 6.87713 24.3625 6.78161L25.3703 5.05066L27.3676 4.89951C27.485 4.89065 27.5871 4.81586 27.631 4.70666C27.675 4.59747 27.6532 4.47277 27.5748 4.38507L26.2399 2.8918L26.7133 0.945588C26.7412 0.831182 26.7016 0.710912 26.6113 0.635336C26.5546 0.587905 26.484 0.563148 26.4127 0.563148C26.3705 0.563148 26.328 0.571748 26.288 0.589469L24.4553 1.39748L22.7505 0.345802C22.7008 0.31505 22.6445 0.299805 22.5882 0.299805C22.5312 0.299805 22.4742 0.315571 22.424 0.346975C22.3243 0.40939 22.2687 0.523014 22.2805 0.640157Z" fill="#A7A9AC"/>
</svg>
