<svg width="18" height="18" viewBox="0 0 18 18" fill="none" xmlns="http://www.w3.org/2000/svg">
<path d="M9.85668 0.666748C10.7942 0.669248 11.27 0.674248 11.6808 0.685915L11.8425 0.691748C12.0292 0.698415 12.2133 0.706748 12.4358 0.716748C13.3225 0.758415 13.9275 0.898415 14.4583 1.10425C15.0083 1.31591 15.4717 1.60258 15.935 2.06508C16.3588 2.48166 16.6866 2.98557 16.8958 3.54175C17.1017 4.07258 17.2417 4.67758 17.2833 5.56508C17.2933 5.78675 17.3017 5.97092 17.3083 6.15842L17.3133 6.32008C17.3258 6.73008 17.3308 7.20591 17.3325 8.14341L17.3333 8.76508V9.85675C17.3354 10.4646 17.329 11.0724 17.3142 11.6801L17.3092 11.8417C17.3025 12.0292 17.2942 12.2134 17.2842 12.4351C17.2425 13.3226 17.1008 13.9267 16.8958 14.4584C16.6872 15.0149 16.3593 15.5189 15.935 15.9351C15.5183 16.3587 15.0144 16.6865 14.4583 16.8959C13.9275 17.1017 13.3225 17.2417 12.4358 17.2834C12.2381 17.2927 12.0403 17.3011 11.8425 17.3084L11.6808 17.3134C11.27 17.3251 10.7942 17.3309 9.85668 17.3326L9.23501 17.3334H8.14418C7.53606 17.3355 6.92795 17.3291 6.32001 17.3142L6.15835 17.3092C5.96052 17.3018 5.76274 17.2931 5.56501 17.2834C4.67835 17.2417 4.07335 17.1017 3.54168 16.8959C2.98557 16.6871 2.48186 16.3591 2.06585 15.9351C1.64172 15.5187 1.31353 15.0147 1.10418 14.4584C0.898346 13.9276 0.758346 13.3226 0.71668 12.4351C0.707395 12.2373 0.699062 12.0396 0.69168 11.8417L0.687513 11.6801C0.672156 11.0724 0.665211 10.4646 0.66668 9.85675V8.14341C0.664354 7.53558 0.670466 6.92775 0.685013 6.32008L0.690846 6.15842C0.697513 5.97092 0.705846 5.78675 0.715846 5.56508C0.757513 4.67758 0.897513 4.07341 1.10335 3.54175C1.31261 2.985 1.64145 2.48093 2.06668 2.06508C2.48259 1.64131 2.98597 1.3134 3.54168 1.10425C4.07335 0.898415 4.67751 0.758415 5.56501 0.716748C5.78668 0.706748 5.97168 0.698415 6.15835 0.691748L6.32001 0.686748C6.92767 0.671942 7.53551 0.665552 8.14335 0.667581L9.85668 0.666748ZM9.00001 4.83342C7.89494 4.83342 6.83514 5.2724 6.05373 6.0538C5.27233 6.83521 4.83335 7.89501 4.83335 9.00008C4.83335 10.1052 5.27233 11.165 6.05373 11.9464C6.83514 12.7278 7.89494 13.1667 9.00001 13.1667C10.1051 13.1667 11.1649 12.7278 11.9463 11.9464C12.7277 11.165 13.1667 10.1052 13.1667 9.00008C13.1667 7.89501 12.7277 6.83521 11.9463 6.0538C11.1649 5.2724 10.1051 4.83342 9.00001 4.83342ZM9.00001 6.50008C9.32832 6.50003 9.65342 6.56464 9.95675 6.69022C10.2601 6.81581 10.5357 6.99991 10.7679 7.23202C11.0001 7.46413 11.1843 7.7397 11.31 8.04299C11.4357 8.34628 11.5004 8.67136 11.5004 8.99967C11.5005 9.32797 11.4359 9.65307 11.3103 9.95641C11.1847 10.2597 11.0006 10.5354 10.7685 10.7676C10.5364 10.9997 10.2608 11.1839 9.95752 11.3096C9.65423 11.4353 9.32915 11.5 9.00085 11.5001C8.33781 11.5001 7.70192 11.2367 7.23308 10.7678C6.76424 10.299 6.50085 9.66312 6.50085 9.00008C6.50085 8.33704 6.76424 7.70116 7.23308 7.23231C7.70192 6.76347 8.33781 6.50008 9.00085 6.50008M13.3758 3.58341C13.0996 3.58341 12.8346 3.69316 12.6393 3.88851C12.4439 4.08386 12.3342 4.34881 12.3342 4.62508C12.3342 4.90135 12.4439 5.1663 12.6393 5.36165C12.8346 5.557 13.0996 5.66675 13.3758 5.66675C13.6521 5.66675 13.9171 5.557 14.1124 5.36165C14.3078 5.1663 14.4175 4.90135 14.4175 4.62508C14.4175 4.34881 14.3078 4.08386 14.1124 3.88851C13.9171 3.69316 13.6521 3.58341 13.3758 3.58341Z" fill="white"/>
</svg>
